<?xml version="1.0" standalone="no"?>
<!DOCTYPE svg PUBLIC "-//W3C//DTD SVG 20010904//EN"
 "http://www.w3.org/TR/2001/REC-SVG-20010904/DTD/svg10.dtd">
<svg version="1.0" xmlns="http://www.w3.org/2000/svg"
 width="736.000000pt" height="552.000000pt" viewBox="0 0 736.000000 552.000000"
 preserveAspectRatio="xMidYMid meet">

<g transform="translate(0.000000,552.000000) scale(0.100000,-0.100000)"
fill="#000000" stroke="none">
<path d="M6179 5137 c-32 -53 -37 -57 -69 -56 -72 3 -97 -1 -97 -16 0 -10 10
-15 26 -15 21 0 23 2 11 10 -11 7 1 10 42 10 35 0 62 5 70 14 12 11 17 11 32
1 11 -8 13 -15 7 -20 -6 -3 -11 -1 -11 4 0 6 -4 11 -10 11 -5 0 -9 -10 -7 -21
1 -16 -4 -23 -21 -25 -16 -3 -21 0 -16 8 5 7 3 8 -6 3 -19 -12 -239 -6 -263 7
-14 7 -17 7 -13 -1 4 -7 -1 -11 -13 -11 -12 0 -21 -4 -21 -10 0 -6 64 -10 172
-10 l172 0 28 27 c21 20 28 36 28 65 0 29 -3 37 -12 32 -9 -6 -9 -3 0 9 8 9
12 22 10 29 -2 6 -20 -14 -39 -45z"/>
<path d="M2887 5118 c-73 -40 -89 -69 -95 -173 l-4 -80 31 -20 c18 -11 34 -30
37 -42 8 -28 24 -30 24 -3 0 30 42 10 53 -26 15 -44 26 -54 64 -54 35 0 83 36
83 62 0 7 9 -6 20 -27 17 -32 20 -52 15 -97 -3 -32 -3 -58 0 -58 9 0 45 79 45
98 0 10 9 27 21 38 11 10 27 34 35 53 14 34 14 36 -8 53 -19 14 -23 27 -23 70
-1 87 -64 195 -132 224 -52 22 -102 17 -166 -18z m122 -158 c51 -23 98 -25
125 -5 31 23 36 18 35 -32 l-2 -48 -6 40 -7 40 -22 -35 c-20 -32 -28 -60 -18
-60 2 0 12 -3 22 -7 12 -5 15 -3 9 6 -6 10 -3 11 14 2 28 -15 27 -18 -9 -19
-16 0 -35 -4 -41 -8 -19 -12 -188 -10 -210 2 -18 9 -19 13 -7 25 8 8 17 31 21
52 6 41 22 67 41 67 6 0 31 -9 55 -20z m141 -64 c0 -2 -7 -9 -15 -16 -13 -11
-14 -10 -9 4 5 14 24 23 24 12z m55 -76 c7 -11 -20 -80 -32 -80 -5 0 -7 20 -5
45 4 43 22 60 37 35z m-161 -6 c36 -14 0 -84 -43 -84 -25 0 -51 26 -51 51 0
28 55 48 94 33z"/>
<path d="M3440 5079 c0 -4 4 -19 10 -33 l10 -26 637 0 c362 0 632 4 624 9 -11
7 -11 9 0 14 12 4 11 7 -1 16 -8 6 -11 11 -5 11 5 0 4 5 -2 11 -7 7 -20 9 -30
5 -15 -6 -15 -8 -3 -16 12 -8 9 -10 -10 -10 -14 0 -34 -6 -45 -13 -15 -11 -58
-12 -185 -9 -119 4 -156 8 -132 14 29 8 45 28 22 28 -5 0 -10 -4 -10 -10 0 -5
-14 -10 -31 -10 -17 0 -28 -4 -24 -10 8 -14 -130 -13 -156 0 -13 7 -19 7 -19
0 0 -5 -4 -10 -9 -10 -6 0 -8 9 -6 20 5 24 41 21 -347 24 -159 1 -288 -1 -288
-5z m317 -23 c-5 -16 -24 -18 -30 -4 -3 9 3 14 14 14 11 0 18 -5 16 -10z m190
-2 c-2 -2 -20 -6 -40 -8 -39 -5 -53 10 -14 16 23 4 60 -2 54 -8z m57 1 c-4 -8
-11 -12 -16 -9 -6 4 -5 10 3 15 19 12 19 11 13 -6z m-189 -5 c-3 -5 -13 -10
-21 -10 -8 0 -12 5 -9 10 3 6 13 10 21 10 8 0 12 -4 9 -10z m875 -10 c0 -5 -2
-10 -4 -10 -3 0 -8 5 -11 10 -3 6 -1 10 4 10 6 0 11 -4 11 -10z"/>
<path d="M4224 5079 c-3 -5 6 -9 20 -9 31 0 34 6 6 13 -11 3 -23 1 -26 -4z"/>
<path d="M4797 5084 c-12 -12 4 -24 34 -24 31 0 39 14 13 24 -20 8 -39 8 -47
0z"/>
<path d="M5945 5080 c-28 -7 -27 -8 13 -9 23 0 42 4 42 9 0 11 -11 11 -55 0z"/>
<path d="M4095 5070 c3 -5 17 -10 31 -10 13 0 24 5 24 10 0 6 -14 10 -31 10
-17 0 -28 -4 -24 -10z"/>
<path d="M4170 5072 c0 -15 11 -21 27 -15 12 5 12 7 1 14 -17 11 -28 11 -28 1z"/>
<path d="M4386 5071 c-4 -7 -5 -15 -2 -18 9 -9 19 4 14 18 -4 11 -6 11 -12 0z"/>
<path d="M4746 5065 c4 -8 10 -15 16 -15 5 0 7 4 4 9 -4 5 0 12 6 14 7 3 3 6
-9 6 -16 1 -21 -3 -17 -14z"/>
<path d="M4920 5071 c0 -17 18 -21 24 -6 3 9 0 15 -9 15 -8 0 -15 -4 -15 -9z"/>
<path d="M4960 5072 c0 -4 18 -6 40 -4 22 2 40 6 40 8 0 2 -18 4 -40 4 -22 0
-40 -3 -40 -8z"/>
<path d="M5151 5071 c-7 -5 -10 -14 -7 -20 5 -7 -4 -11 -26 -11 -18 0 -40 -5
-48 -10 -10 -6 115 -10 363 -10 207 0 377 2 377 4 0 5 -60 36 -69 36 -3 0 1
-5 9 -10 11 -7 5 -10 -23 -10 -21 0 -36 4 -33 9 3 5 -1 12 -10 15 -28 11 -38
6 -18 -9 17 -13 2 -14 -143 -16 -288 -2 -296 -1 -288 11 3 6 -4 10 -17 10 -19
0 -20 2 -8 11 13 9 13 10 0 6 -8 -2 -14 -11 -12 -21 2 -9 -4 -16 -14 -16 -11
0 -15 6 -11 20 6 22 0 25 -22 11z"/>
<path d="M5360 5065 c0 -11 11 -15 43 -13 36 1 38 2 10 5 -18 2 -33 8 -33 14
0 5 -4 9 -10 9 -5 0 -10 -7 -10 -15z"/>
<path d="M4415 5060 c4 -6 11 -8 16 -5 14 9 11 15 -7 15 -8 0 -12 -5 -9 -10z"/>
<path d="M5088 5053 c7 -3 16 -2 19 1 4 3 -2 6 -13 5 -11 0 -14 -3 -6 -6z"/>
<path d="M5268 5053 c7 -3 16 -2 19 1 4 3 -2 6 -13 5 -11 0 -14 -3 -6 -6z"/>
<path d="M5548 5053 c7 -3 16 -2 19 1 4 3 -2 6 -13 5 -11 0 -14 -3 -6 -6z"/>
<path d="M4740 5030 c0 -6 44 -10 111 -10 71 0 108 4 104 10 -3 6 -52 10 -111
10 -63 0 -104 -4 -104 -10z"/>
<path d="M5025 5030 c-3 -5 -1 -10 4 -10 6 0 11 5 11 10 0 6 -2 10 -4 10 -3 0
-8 -4 -11 -10z"/>
<path d="M2840 4573 c0 -2 9 -16 20 -31 11 -15 32 -52 47 -82 20 -39 39 -61
65 -75 38 -20 38 -20 57 0 11 11 27 49 35 83 l15 64 -21 -19 c-12 -10 -18 -12
-14 -5 6 10 -7 11 -61 6 -67 -6 -68 -6 -105 29 -21 19 -38 33 -38 30z m90
-118 c0 -5 -5 -3 -10 5 -5 8 -10 20 -10 25 0 6 5 3 10 -5 5 -8 10 -19 10 -25z
m70 -65 c8 -5 11 -10 5 -10 -5 0 -17 5 -25 10 -8 5 -10 10 -5 10 6 0 17 -5 25
-10z"/>
<path d="M1610 4060 c-14 -4 -47 -8 -73 -9 -51 -1 -95 -19 -118 -48 -13 -17
-13 -17 13 0 23 14 26 14 22 2 -4 -8 -10 -15 -15 -15 -5 0 -9 -8 -9 -17 0 -13
3 -14 12 -5 22 22 32 12 10 -11 -26 -27 -28 -39 -7 -31 8 4 15 4 15 2 0 -10
-38 -48 -48 -48 -6 0 -19 -15 -31 -33 -20 -33 -22 -91 -6 -177 5 -28 4 -32 -5
-20 -10 13 -11 12 -6 -3 3 -10 6 -21 6 -24 0 -2 7 3 16 11 13 13 14 22 5 48
-6 17 -10 47 -10 67 1 34 2 33 9 -11 5 -26 16 -71 25 -99 9 -28 15 -61 12 -75
-9 -46 59 -68 131 -43 24 8 37 23 57 67 43 97 50 107 72 110 15 2 27 -6 39
-27 10 -17 23 -31 30 -31 11 0 24 126 24 237 0 40 4 53 15 53 18 0 19 11 3 62
-17 56 -49 78 -112 77 -28 -1 -62 -5 -76 -9z"/>
<path d="M1400 3971 c0 -6 4 -13 10 -16 6 -3 7 1 4 9 -7 18 -14 21 -14 7z"/>
<path d="M2865 3940 c3 -5 -3 -10 -14 -10 -29 0 -26 -14 10 -51 33 -34 33 -50
-1 -26 -21 14 -24 14 -46 -11 -20 -23 -25 -25 -34 -12 -8 12 -10 10 -10 -11 0
-46 47 -52 93 -13 22 19 32 23 36 13 9 -28 24 -36 48 -25 12 6 23 16 23 22 0
7 20 21 45 33 52 24 57 33 15 26 -23 -4 -28 -2 -24 10 4 10 0 15 -10 15 -9 0
-16 5 -16 12 0 6 -3 8 -7 4 -5 -4 -8 -12 -8 -17 0 -5 -2 -10 -5 -11 -6 -2 -60
32 -78 49 -16 15 -26 17 -17 3z"/>
<path d="M5705 3940 c-33 -4 -71 -10 -85 -15 -27 -8 -70 -43 -70 -57 0 -5 7
-2 16 6 8 9 24 21 35 26 18 10 24 4 20 -22 0 -4 6 -5 13 -2 11 4 8 -10 -10
-53 -26 -64 -31 -98 -12 -87 8 5 9 2 4 -12 -18 -47 -28 -114 -22 -148 l7 -38
48 7 c37 5 50 3 60 -9 15 -18 28 -111 15 -104 -5 2 -19 -6 -31 -19 l-22 -23
24 -6 c29 -7 31 -21 9 -52 -14 -20 -14 -22 3 -22 15 0 16 -2 3 -10 -9 -6 -20
-5 -29 3 -12 10 -14 9 -9 -4 5 -12 1 -15 -16 -12 -13 3 -40 -3 -61 -11 -48
-20 -35 -40 24 -38 22 1 42 -2 45 -7 3 -5 32 2 65 15 32 13 94 29 137 34 96
13 114 18 114 32 0 6 21 33 46 60 68 73 84 115 84 229 0 122 -6 154 -39 187
-14 15 -39 46 -54 69 -54 78 -145 103 -312 83z m25 -534 c0 -3 -4 -8 -10 -11
-5 -3 -10 -1 -10 4 0 6 5 11 10 11 6 0 10 -2 10 -4z"/>
<path d="M3358 3809 c-11 -33 -12 -33 -90 -13 -22 5 -28 3 -28 -10 0 -10 11
-19 30 -22 41 -9 38 -32 -4 -25 -4 1 -14 -4 -22 -10 -11 -9 -14 -8 -14 4 0 8
6 18 13 21 6 3 3 4 -9 1 -12 -3 -27 1 -34 10 -13 15 -35 11 -25 -6 4 -5 -6 -9
-22 -9 -28 -1 -28 -1 -6 -13 l23 -12 -21 -13 c-12 -8 -24 -11 -27 -7 -4 3 0
10 7 14 10 6 4 11 -18 16 -18 4 -35 4 -38 1 -4 -3 3 -6 15 -6 35 0 25 -20 -10
-21 -32 -1 -31 -2 10 -12 33 -8 42 -14 42 -31 0 -22 49 -47 120 -62 19 -3 37
-10 40 -14 3 -4 17 -10 33 -14 53 -13 105 70 74 117 -11 17 -12 28 -5 41 10
17 8 41 -7 81 -5 16 -5 17 4 5 9 -13 11 -13 11 3 0 29 -30 19 -42 -14z m-151
-95 c-3 -3 -12 -4 -19 -1 -8 3 -5 6 6 6 11 1 17 -2 13 -5z"/>
<path d="M3175 3810 c-3 -5 1 -13 10 -16 22 -9 29 1 11 15 -10 8 -16 9 -21 1z"/>
<path d="M1331 3769 c1 -13 5 -35 9 -49 7 -19 8 -15 5 18 -4 46 -16 72 -14 31z"/>
<path d="M3045 3759 c-10 -15 -4 -17 35 -11 29 4 32 6 15 13 -29 11 -43 11
-50 -2z"/>
<path d="M5025 3744 c-116 -30 -155 -48 -155 -75 0 -5 9 0 20 11 20 20 46 28
35 10 -3 -6 1 -7 9 -4 9 3 13 11 10 16 -4 6 6 8 27 4 25 -4 29 -4 14 3 -18 9
-17 10 8 10 l29 1 -26 -46 c-31 -56 -31 -51 -5 -110 15 -37 22 -45 29 -34 7
11 15 2 31 -38 12 -28 27 -52 33 -52 6 0 28 9 49 20 20 11 39 20 42 20 12 0 3
-58 -14 -96 -17 -36 -22 -41 -45 -37 -14 3 -26 12 -26 19 0 8 -4 14 -10 14
-13 0 -13 -3 1 -34 15 -33 -3 -79 -37 -94 -13 -7 -24 -16 -24 -22 0 -7 -7 -18
-15 -26 -8 -9 -15 -11 -15 -6 0 9 -38 14 -122 15 -37 1 -38 2 -38 39 0 32 -4
39 -26 44 -14 4 -44 2 -67 -4 l-42 -11 49 5 c48 6 49 5 31 -13 -18 -17 -18
-18 9 -21 22 -3 27 -8 23 -23 -3 -10 -1 -19 4 -19 5 0 9 -5 9 -11 0 -6 -7 -8
-16 -5 -8 3 -12 2 -9 -3 3 -5 1 -12 -5 -16 -5 -3 -10 -13 -10 -22 0 -9 -8 -26
-17 -37 -18 -20 -18 -20 7 -4 14 8 25 24 25 34 1 11 7 18 14 16 6 -1 27 5 46
14 52 24 85 15 118 -32 24 -34 30 -55 36 -130 5 -54 9 -71 10 -44 1 40 7 51
56 99 30 30 57 52 60 49 3 -3 -17 -39 -45 -81 -49 -74 -59 -97 -41 -97 11 0
81 79 81 91 0 4 24 19 53 34 43 20 66 25 115 23 46 -2 62 -6 62 -17 0 -16 61
-100 73 -101 11 0 8 30 -8 84 -8 27 -15 73 -15 102 0 32 -9 75 -22 106 -15 37
-23 87 -29 168 -9 136 -19 175 -62 232 -47 62 -84 79 -175 83 -42 2 -86 2 -97
-1z m-25 -108 c0 -3 -4 -8 -10 -11 -5 -3 -10 -1 -10 4 0 6 5 11 10 11 6 0 10
-2 10 -4z m-150 -440 c0 -3 -4 -8 -10 -11 -5 -3 -10 -1 -10 4 0 6 5 11 10 11
6 0 10 -2 10 -4z"/>
<path d="M2993 3706 c-3 -5 -1 -6 4 -3 6 4 18 -2 28 -13 10 -11 28 -20 39 -19
18 1 18 2 -4 8 -14 4 -24 14 -23 22 3 16 -35 21 -44 5z"/>
<path d="M1893 3695 c-7 -7 -18 -15 -25 -18 -7 -2 -10 -7 -7 -11 3 -4 17 2 30
13 13 11 22 21 19 24 -3 3 -10 -1 -17 -8z"/>
<path d="M3102 3673 c-6 -2 -10 -9 -6 -14 8 -14 21 -11 21 6 0 8 -1 15 -1 14
-1 0 -7 -3 -14 -6z"/>
<path d="M2538 3633 c7 -3 16 -2 19 1 4 3 -2 6 -13 5 -11 0 -14 -3 -6 -6z"/>
<path d="M1871 3614 c0 -11 3 -14 6 -6 3 7 2 16 -1 19 -3 4 -6 -2 -5 -13z"/>
<path d="M1397 3607 c-3 -7 1 -21 9 -32 8 -10 14 -14 14 -8 0 7 -4 14 -10 18
-5 3 -7 12 -3 20 3 8 3 15 0 15 -3 0 -7 -6 -10 -13z"/>
<path d="M1659 3592 c6 -12 16 -24 22 -28 8 -4 8 -1 0 14 -6 12 -16 24 -22 28
-8 4 -8 1 0 -14z"/>
<path d="M1860 3563 c-8 -15 -21 -33 -29 -39 -10 -8 -11 -13 -3 -18 7 -4 12
-2 12 4 0 7 7 9 16 6 8 -3 12 -2 9 4 -3 5 -1 19 5 30 6 12 10 26 8 31 -2 6
-10 -2 -18 -18z"/>
<path d="M1612 3549 c-7 -11 -24 -25 -37 -31 -14 -6 -25 -19 -25 -30 0 -21 -4
-22 -33 -7 -22 10 -22 10 -2 -6 11 -9 53 -37 93 -62 69 -43 74 -45 91 -29 11
10 25 31 31 47 11 24 18 29 49 29 45 0 81 10 81 21 0 5 -11 9 -25 9 -14 0 -30
9 -37 20 -15 23 -33 27 -24 5 6 -17 -19 -21 -29 -4 -4 6 -14 8 -22 5 -8 -3
-12 -2 -9 2 2 4 0 14 -5 22 -8 13 -10 13 -19 0 -8 -13 -11 -13 -19 -1 -5 7
-13 11 -19 7 -6 -3 -15 0 -19 9 -7 12 -10 11 -21 -6z m27 -95 c-13 -15 -55
-12 -72 6 -10 10 -9 11 3 5 13 -8 13 -7 1 8 -12 15 -11 17 5 17 16 0 17 2 4
10 -11 7 -12 10 -2 10 8 0 16 -9 19 -20 3 -11 13 -20 22 -20 11 0 12 3 4 8
-10 6 -11 20 -3 52 0 3 7 -10 15 -29 11 -24 12 -37 4 -47z"/>
<path d="M3428 3553 c6 -2 18 -2 25 0 6 3 1 5 -13 5 -14 0 -19 -2 -12 -5z"/>
<path d="M3265 3540 c28 -12 45 -12 45 0 0 6 -15 10 -32 9 -28 0 -30 -2 -13
-9z"/>
<path d="M3213 3443 l-83 -26 0 -50 c0 -28 -3 -47 -7 -43 -4 4 -6 24 -4 46 l2
39 -53 -5 c-75 -8 -76 -9 -74 -46 l2 -33 52 1 c29 1 52 -2 52 -7 0 -5 -29 -9
-65 -9 l-65 0 0 46 0 47 -107 -9 c-60 -5 -150 -9 -200 -9 -67 1 -93 -3 -93
-12 0 -6 5 -15 10 -18 18 -11 10 -40 -25 -90 -64 -92 -68 -107 -49 -178 27
-101 27 -105 9 -149 -13 -34 -15 -59 -10 -113 8 -86 15 -99 49 -93 17 3 29 0
34 -9 7 -11 14 -11 45 2 48 20 49 19 82 -11 21 -20 25 -28 15 -34 -22 -14 10
-36 63 -44 26 -4 45 -11 43 -15 -3 -4 8 -12 25 -18 16 -6 29 -7 29 -3 0 5 -8
11 -17 13 -10 3 1 5 25 6 25 1 42 6 42 13 0 9 3 9 12 0 17 -17 28 -15 22 6 -5
16 -5 16 9 0 8 -10 26 -18 40 -18 29 0 24 -16 107 300 65 247 69 260 83 260
42 -1 40 -12 -36 -296 -41 -154 -74 -280 -74 -280 4 -3 222 18 226 22 9 9 30
146 36 239 4 55 16 136 27 179 26 101 21 150 -24 248 -20 42 -33 80 -28 85 4
4 5 27 2 51 -5 51 -11 51 -129 15z m-619 -418 c-4 -9 -15 -20 -25 -25 -10 -6
-16 -17 -13 -25 4 -8 11 -12 18 -8 7 4 7 1 -1 -9 -7 -8 -9 -18 -5 -22 4 -4 -2
-14 -12 -22 -23 -16 -36 -18 -36 -4 0 6 6 10 14 10 8 0 18 5 22 12 5 8 2 9
-10 5 -12 -5 -15 -3 -10 5 4 7 7 27 6 46 -2 21 1 31 8 27 5 -3 10 -1 10 5 0 6
5 8 10 5 6 -3 10 -1 10 4 0 6 4 11 10 11 5 0 7 -7 4 -15z m275 -227 c-71 -61
-169 -94 -169 -58 0 15 52 50 74 50 11 1 41 11 66 23 58 30 73 22 29 -15z
m120 -57 c46 -43 38 -55 -12 -20 -24 17 -62 33 -85 36 -49 7 -46 23 3 23 26 0
35 5 41 23 7 21 7 21 15 -6 4 -15 21 -40 38 -56z m0 -52 c17 -17 31 -38 31
-47 0 -11 -11 -4 -34 21 -18 20 -43 37 -55 37 -11 0 -21 5 -21 10 0 22 50 9
79 -21z m-199 2 c0 -5 -6 -12 -12 -14 -8 -4 -7 -6 3 -6 9 -1 19 -7 22 -15 5
-12 0 -13 -26 -4 -42 14 -42 15 -27 33 14 16 40 20 40 6z m52 -31 c18 -16 29
-30 25 -30 -12 0 -67 43 -67 52 0 13 7 9 42 -22z"/>
<path d="M1711 3244 c0 -11 3 -14 6 -6 3 7 2 16 -1 19 -3 4 -6 -2 -5 -13z"/>
<path d="M1710 3190 c0 -5 7 -27 15 -47 8 -21 22 -65 31 -98 16 -57 108 -255
119 -255 3 0 -10 31 -29 69 -38 75 -116 292 -116 322 0 11 -4 19 -10 19 -5 0
-10 -4 -10 -10z"/>
<path d="M1771 3134 c0 -11 3 -14 6 -6 3 7 2 16 -1 19 -3 4 -6 -2 -5 -13z"/>
<path d="M3151 2938 c-30 -112 -62 -229 -71 -261 -10 -31 -15 -59 -11 -62 8
-5 12 8 91 308 28 109 50 202 48 208 -2 5 -27 -82 -57 -193z"/>
<path d="M4732 2975 c0 -16 2 -22 5 -12 2 9 2 23 0 30 -3 6 -5 -1 -5 -18z"/>
<path d="M1850 2911 c0 -5 7 -15 17 -22 15 -13 15 -12 4 9 -12 23 -21 28 -21
13z"/>
<path d="M4080 2825 c-40 -42 -71 -77 -68 -80 2 -2 37 -8 76 -11 l72 -7 0 87
c0 47 -1 86 -3 86 -2 0 -36 -34 -77 -75z"/>
<path d="M1925 2771 c8 -17 19 -33 25 -36 5 -3 1 10 -11 29 -25 43 -36 48 -14
7z"/>
<path d="M3692 2750 c10 -16 10 -24 1 -39 -10 -17 -8 -21 18 -31 23 -10 36
-10 55 -1 l26 11 -33 31 c-51 48 -89 64 -67 29z"/>
<path d="M3560 2755 c0 -6 5 -16 12 -23 9 -9 -6 -12 -70 -12 l-82 0 0 -70 0
-70 285 0 c158 0 305 5 332 10 42 9 65 7 173 -20 69 -16 134 -30 145 -30 18 1
17 3 -8 24 -28 22 -83 35 -297 67 -36 6 -96 20 -134 31 -67 21 -70 21 -136 4
-66 -17 -69 -17 -94 0 -14 11 -26 25 -26 32 0 6 -6 12 -14 12 -8 0 -16 5 -18
10 -2 6 -14 12 -27 15 -14 2 -28 10 -33 17 -4 7 -8 8 -8 3z"/>
<path d="M2493 2595 c0 -22 2 -30 4 -17 2 12 2 30 0 40 -3 9 -5 -1 -4 -23z"/>
<path d="M2681 2556 c2 -2 38 -6 79 -10 52 -5 70 -4 60 4 -13 9 -149 15 -139
6z"/>
<path d="M2868 2553 c12 -2 30 -2 40 0 9 3 -1 5 -23 4 -22 0 -30 -2 -17 -4z"/>
<path d="M4716 2545 c-3 -8 0 -12 7 -9 7 2 21 -3 32 -11 20 -16 20 -16 -2 -10
-13 4 -27 4 -32 0 -15 -9 -1 -35 18 -35 9 0 29 -7 44 -15 15 -8 25 -10 22 -5
-9 14 30 30 64 25 32 -4 43 8 16 19 -8 3 -15 0 -15 -6 0 -7 -5 -6 -15 2 -11
10 -18 9 -31 -4 -8 -9 -21 -13 -27 -9 -7 4 -5 8 6 12 11 4 3 13 -33 33 -38 21
-49 24 -54 13z m65 -43 c-8 -3 -6 -9 6 -18 13 -10 8 -10 -22 2 -22 9 -41 17
-42 18 -1 1 14 2 34 2 20 0 31 -2 24 -4z"/>
<path d="M2543 2533 c37 -2 97 -2 135 0 37 2 6 3 -68 3 -74 0 -105 -1 -67 -3z"/>
<path d="M4921 2484 c0 -11 3 -14 6 -6 3 7 2 16 -1 19 -3 4 -6 -2 -5 -13z"/>
<path d="M2180 2480 c-8 -5 -23 -7 -34 -4 -13 5 -16 3 -11 -7 6 -9 4 -11 -8
-6 -9 3 -19 2 -22 -3 -4 -6 -1 -10 5 -10 6 0 9 -4 5 -9 -3 -6 15 2 40 15 25
14 45 28 45 30 0 6 -3 5 -20 -6z"/>
<path d="M4375 2464 c-8 -9 -22 -29 -31 -46 -17 -33 -37 -33 -42 0 -3 18 2 22
22 22 38 0 40 17 1 18 -32 1 -34 -1 -37 -34 l-3 -35 -95 -2 c-55 -1 -105 -8
-118 -15 -12 -7 -33 -36 -46 -65 -14 -31 -48 -76 -85 -112 -46 -44 -77 -88
-118 -165 -56 -105 -194 -299 -252 -354 -17 -17 -31 -37 -31 -46 0 -9 20 -30
45 -48 25 -17 45 -36 45 -41 0 -5 -29 -43 -65 -84 -51 -57 -76 -77 -108 -87
-52 -15 -114 -46 -139 -69 -27 -26 -91 -43 -120 -32 -12 5 -34 21 -47 35 -14
14 -31 26 -38 26 -20 0 -8 54 37 175 32 85 39 121 49 235 7 74 19 162 28 195
12 42 16 96 15 182 -1 85 3 135 13 164 25 70 26 69 -84 69 -54 0 -119 -3 -145
-6 l-46 -7 0 -116 c-1 -85 -7 -141 -24 -211 l-23 -95 -7 50 c-10 65 -30 98
-78 126 l-39 24 6 75 c3 41 8 94 11 118 l6 42 -69 0 c-39 0 -104 -3 -145 -6
l-75 -7 5 -51 c2 -28 9 -57 15 -64 7 -9 6 -11 -7 -6 -13 5 -17 2 -14 -12 3
-21 -10 -21 -142 -1 l-75 12 -3 63 c-2 46 -7 62 -17 62 -20 0 -20 -88 0 -110
11 -13 14 -58 15 -234 1 -120 -1 -220 -4 -224 -3 -3 -6 -65 -6 -139 0 -82 -4
-133 -10 -133 -6 0 -9 -69 -8 -192 l3 -193 2 188 c2 113 7 187 13 187 6 0 10
56 10 141 l0 140 35 15 c22 9 49 12 74 8 l39 -6 -24 -67 c-54 -144 -77 -197
-100 -227 -23 -30 -24 -35 -23 -244 0 -117 4 -234 9 -260 5 -26 10 -66 11 -89
2 -22 7 -41 12 -41 4 0 47 -18 94 -41 48 -23 121 -48 164 -57 l78 -16 8 -45 8
-44 84 -18 c46 -10 87 -16 91 -14 4 3 25 -2 45 -11 106 -44 449 -30 468 20 11
27 -17 47 -81 56 -83 11 -134 43 -220 135 -38 41 -74 75 -79 75 -13 0 -74 123
-65 132 5 5 28 0 53 -11 75 -34 211 -23 222 19 6 23 -6 33 -55 49 -21 7 -38
17 -38 23 0 6 8 7 18 3 15 -6 81 -28 168 -55 17 -6 60 -10 96 -10 59 0 67 -3
82 -24 12 -19 33 -28 90 -41 40 -9 89 -15 107 -13 l34 3 14 90 c10 66 11 106
4 150 -10 59 -9 61 25 113 41 62 63 58 55 -11 -16 -158 -26 -206 -49 -256
l-25 -56 32 -27 c17 -15 58 -41 90 -58 55 -29 58 -32 47 -55 -6 -14 -18 -25
-27 -25 -9 0 -36 -16 -61 -35 -118 -92 -167 -115 -246 -115 -78 0 -104 -10
-111 -42 -3 -15 -10 -31 -14 -34 -21 -12 -5 -24 56 -43 139 -43 219 -46 437
-15 43 6 46 5 50 -17 3 -21 9 -24 48 -27 25 -1 77 1 115 5 l70 8 3 39 c2 22
-2 50 -9 63 -9 18 -10 28 -1 46 7 12 10 29 8 37 -6 28 -38 95 -48 101 -7 5 -6
29 2 75 32 173 63 327 86 420 13 56 24 109 24 119 0 9 14 36 30 60 27 39 33
43 58 35 29 -8 132 -59 132 -64 0 -2 -11 -3 -24 -2 -13 0 -22 4 -20 7 2 3 -7
11 -20 17 l-24 11 -7 -97 c-4 -53 -13 -126 -20 -162 -7 -36 -16 -81 -19 -100
-12 -79 -27 -148 -41 -190 -8 -25 -16 -54 -18 -65 -2 -11 -7 -28 -11 -37 -4
-9 -6 -25 -3 -35 3 -12 5 -10 6 8 1 23 6 27 36 31 47 5 46 -16 -1 -44 -24 -14
-34 -27 -33 -42 1 -11 -2 -55 -7 -96 -7 -59 -10 6 -14 295 l-5 370 -3 -372
c-2 -326 0 -373 13 -373 11 0 15 12 15 44 0 39 3 45 23 48 15 2 23 11 25 28 6
60 39 149 75 200 21 30 41 54 45 53 4 0 6 3 5 8 -2 5 1 9 7 9 15 0 34 43 32
74 -3 41 -8 43 -38 15 l-27 -24 7 40 c3 22 8 76 10 120 5 101 33 237 51 251
20 15 55 94 55 124 0 19 9 31 35 44 19 11 35 27 35 36 0 9 6 24 13 34 13 17
20 17 163 2 82 -9 233 -25 336 -36 199 -21 403 -25 507 -10 73 10 75 12 66 39
-5 17 -13 19 -53 17 -26 -1 -53 -5 -60 -10 -19 -11 -14 2 13 38 22 28 52 133
41 143 -2 2 -23 -2 -48 -8 -41 -11 -55 -9 -159 20 -157 45 -189 61 -234 115
-37 46 -40 47 -88 45 -42 -3 -51 0 -61 19 -7 13 -14 20 -17 17 -3 -3 -5 30 -5
73 l1 78 -21 -26 c-11 -14 -28 -42 -37 -62 -10 -20 -23 -41 -30 -45 -19 -12
-45 -14 -52 -3 -3 6 -18 10 -33 11 -24 0 -25 1 -7 9 18 8 17 9 -8 9 -16 1 -26
-3 -22 -9 3 -5 0 -7 -8 -4 -8 3 -20 16 -27 30 -8 14 -22 24 -35 24 -24 0 -50
24 -41 38 3 5 -49 14 -115 21 -83 9 -119 17 -119 26 0 7 -8 15 -18 17 -13 4
-33 40 -61 112 -24 58 -45 106 -46 106 -2 0 -11 -7 -20 -16z m-2068 -196 c-2
-13 -4 -3 -4 22 0 25 2 35 4 23 2 -13 2 -33 0 -45z m1793 7 c3 -46 -9 -125
-19 -125 -3 0 -5 24 -4 52 1 29 2 71 2 93 1 51 19 34 21 -20z m-1103 23 c-3
-8 -6 -5 -6 6 -1 11 2 17 5 13 3 -3 4 -12 1 -19z m-417 -13 c1 12 4 15 7 7 7
-18 -5 -62 -17 -62 -6 0 -10 17 -9 38 0 30 2 33 9 17 l9 -20 1 20z m1550 -100
c0 -5 -5 -3 -10 5 -5 8 -10 20 -10 25 0 6 5 3 10 -5 5 -8 10 -19 10 -25z m923
-30 c-3 -9 -8 -14 -10 -11 -3 3 -2 9 2 15 9 16 15 13 8 -4z m-1082 -41 c9 -53
-20 -102 -78 -133 -21 -11 -45 -44 -59 -83 -7 -21 -24 -24 -24 -4 0 7 11 34
24 59 14 25 21 49 18 53 -4 4 0 5 9 2 12 -5 15 -1 11 17 -2 12 2 26 8 30 9 5
10 1 5 -15 -5 -16 -4 -20 4 -16 6 4 11 17 9 29 -2 28 21 87 34 87 6 0 7 -7 4
-16 -3 -9 -2 -12 5 -9 5 4 7 16 3 27 -4 15 -2 19 7 16 8 -3 17 -22 20 -44z
m-44 -202 c-2 -4 -8 -18 -13 -32 -39 -91 -79 -158 -94 -155 -18 3 -45 -51 -30
-60 5 -3 11 4 15 15 3 11 11 20 16 20 15 0 11 -10 -16 -42 -17 -20 -25 -24
-25 -14 0 30 -19 16 -23 -16 -3 -18 -3 -4 -2 30 2 35 8 69 14 75 6 6 11 22 11
35 0 14 7 30 16 36 8 6 16 19 17 28 3 17 58 68 75 68 5 0 13 7 16 16 3 8 10
12 16 9 6 -4 9 -9 7 -13z m-1191 -917 c18 -67 17 -95 -3 -111 -32 -24 -51 -15
-92 43 -23 31 -41 59 -41 63 0 4 18 19 40 34 35 23 40 31 40 64 l1 37 21 -40
c12 -22 27 -62 34 -90z m1760 24 c-8 -19 -24 -45 -36 -59 l-22 -25 21 35 c11
19 26 48 32 63 6 15 13 26 16 24 2 -3 -3 -20 -11 -38z"/>
<path d="M3853 1836 c-12 -14 -8 -26 8 -26 5 0 13 9 19 20 13 24 -7 28 -27 6z"/>
<path d="M4670 2460 c0 -6 13 -37 30 -69 16 -32 27 -61 24 -63 -2 -3 26 -8 63
-12 194 -18 262 -32 282 -57 19 -23 20 -23 15 -3 -3 12 -1 31 5 43 14 25 -3
35 -124 76 -134 46 -131 45 -115 57 12 8 12 9 -2 4 -10 -3 -39 4 -64 14 -49
21 -114 27 -114 10z"/>
<path d="M2290 2448 c0 -5 439 -8 975 -8 625 0 975 3 975 10 0 6 -348 9 -975
7 -536 -1 -975 -5 -975 -9z"/>
<path d="M4895 2450 l-30 -8 27 -1 c15 0 30 4 33 9 3 6 5 9 3 9 -2 -1 -16 -5
-33 -9z"/>
<path d="M1995 2409 c-25 -16 -26 -19 -10 -19 25 0 49 15 44 27 -2 6 -17 2
-34 -8z"/>
<path d="M4315 2420 c-3 -6 1 -7 9 -4 18 7 21 14 7 14 -6 0 -13 -4 -16 -10z"/>
<path d="M2131 2364 c0 -11 3 -14 6 -6 3 7 2 16 -1 19 -3 4 -6 -2 -5 -13z"/>
<path d="M1940 2341 c-25 -4 -72 -24 -104 -44 -53 -33 -67 -37 -125 -37 -53 0
-79 -6 -129 -30 -35 -17 -77 -30 -93 -30 -37 0 -55 -38 -40 -81 6 -18 6 -40 0
-61 -5 -18 -9 -54 -9 -80 0 -38 7 -55 37 -95 20 -26 27 -40 16 -30 -24 21 -33
22 -33 3 0 -22 71 -45 172 -56 51 -6 208 -10 348 -8 l255 3 3 221 2 221 -62
23 c-68 25 -98 45 -98 67 0 7 -8 13 -19 13 -10 0 -31 2 -47 4 -16 2 -49 1 -74
-3z m-343 -517 c-3 -3 -12 -4 -19 -1 -8 3 -5 6 6 6 11 1 17 -2 13 -5z m206
-11 c-29 -2 -78 -2 -110 0 -32 2 -8 3 52 3 61 0 87 -1 58 -3z"/>
<path d="M2107 2339 c7 -7 15 -10 18 -7 3 3 -2 9 -12 12 -14 6 -15 5 -6 -5z"/>
<path d="M3332 1848 l3 -493 2 453 c2 248 7 452 11 452 10 0 9 41 -1 58 -5 8
-3 12 7 12 14 0 16 -56 19 -492 l2 -493 3 498 2 497 -25 0 -25 0 2 -492z"/>
<path d="M4692 2289 c-35 -10 -69 -20 -75 -22 -7 -2 30 -9 82 -16 69 -9 96 -9
101 -1 4 6 25 17 46 25 l39 13 -40 6 c-79 13 -91 13 -153 -5z m41 -16 c-7 -2
-19 -2 -25 0 -7 3 -2 5 12 5 14 0 19 -2 13 -5z"/>
<path d="M2292 2190 c0 -19 2 -27 5 -17 2 9 2 25 0 35 -3 9 -5 1 -5 -18z"/>
<path d="M2291 1934 c0 -11 3 -14 6 -6 3 7 2 16 -1 19 -3 4 -6 -2 -5 -13z"/>
<path d="M5731 1883 c0 -6 8 -40 19 -75 11 -34 25 -92 31 -128 5 -35 14 -67
19 -70 17 -10 225 -743 225 -792 0 -27 4 -43 9 -38 17 17 -2 100 -88 395 -123
419 -128 437 -119 445 4 3 40 19 79 34 61 24 71 31 66 48 -4 17 -11 19 -48 14
-24 -3 -63 -9 -87 -12 l-43 -6 -31 99 c-17 54 -31 93 -32 86z"/>
<path d="M2294 1665 c0 -82 2 -115 3 -72 2 43 2 110 0 150 -1 40 -3 5 -3 -78z"/>
<path d="M4923 1555 c0 -33 2 -45 4 -27 2 18 2 45 0 60 -2 15 -4 0 -4 -33z"/>
<path d="M5291 1574 c-1 -6 31 -140 69 -298 39 -157 70 -302 70 -321 0 -54
-26 -62 -238 -70 l-182 -8 -3 299 -2 299 -3 -297 -2 -297 -42 2 -43 2 2 74 c1
46 -2 70 -8 64 -17 -17 -12 -265 5 -307 25 -59 33 -60 327 -37 145 11 343 25
439 31 191 12 280 23 307 39 23 13 -1 15 -26 2 -9 -5 -181 -21 -381 -35 -201
-14 -418 -31 -482 -37 -84 -7 -123 -7 -138 1 -33 18 -51 65 -48 128 l3 57 231
6 c254 7 282 13 295 63 6 22 -11 106 -67 330 -76 308 -82 329 -83 310z"/>
<path d="M5003 1535 c0 -22 2 -30 4 -17 2 12 2 30 0 40 -3 9 -5 -1 -4 -23z"/>
<path d="M4964 1305 c0 -126 2 -177 3 -112 2 65 2 168 0 230 -1 62 -3 9 -3
-118z"/>
<path d="M4913 1455 c0 -22 2 -30 4 -17 2 12 2 30 0 40 -3 9 -5 -1 -4 -23z"/>
<path d="M4308 1387 c-2 -18 -1 -44 3 -58 5 -16 7 -5 8 34 1 63 -5 76 -11 24z"/>
<path d="M4312 1250 c0 -19 2 -27 5 -17 2 9 2 25 0 35 -3 9 -5 1 -5 -18z"/>
<path d="M4312 1175 c0 -16 2 -22 5 -12 2 9 2 23 0 30 -3 6 -5 -1 -5 -18z"/>
<path d="M4314 1050 c0 -52 1 -74 3 -47 2 26 2 68 0 95 -2 26 -3 4 -3 -48z"/>
<path d="M2217 1097 c-8 -13 -29 -56 -46 -96 l-31 -74 22 -16 c12 -9 33 -24
47 -33 l26 -17 3 130 c1 71 0 129 -2 129 -2 0 -10 -10 -19 -23z"/>
<path d="M2293 1075 c0 -22 2 -30 4 -17 2 12 2 30 0 40 -3 9 -5 -1 -4 -23z"/>
<path d="M4912 1070 c0 -19 2 -27 5 -17 2 9 2 25 0 35 -3 9 -5 1 -5 -18z"/>
<path d="M4963 1005 c0 -38 2 -53 4 -32 2 20 2 52 0 70 -2 17 -4 1 -4 -38z"/>
<path d="M3331 1024 c0 -11 3 -14 6 -6 3 7 2 16 -1 19 -3 4 -6 -2 -5 -13z"/>
<path d="M3373 970 c0 -36 2 -50 4 -32 2 17 2 47 0 65 -2 17 -4 3 -4 -33z"/>
<path d="M2292 815 c0 -116 2 -204 5 -196 5 11 7 11 14 0 5 -9 8 9 7 46 l-1
60 -7 -45 -7 -45 -1 48 c-1 26 3 47 8 47 6 0 10 9 10 20 0 11 -4 20 -10 20 -5
0 -10 9 -10 19 0 11 5 23 10 26 13 8 13 138 1 151 -5 5 -11 20 -14 34 -2 14
-5 -69 -5 -185z m15 48 c-2 -21 -4 -6 -4 32 0 39 2 55 4 38 2 -18 2 -50 0 -70z"/>
<path d="M3330 936 c0 -9 5 -16 10 -16 6 0 10 4 10 9 0 6 -4 13 -10 16 -5 3
-10 -1 -10 -9z"/>
<path d="M4961 914 c0 -11 3 -14 6 -6 3 7 2 16 -1 19 -3 4 -6 -2 -5 -13z"/>
<path d="M3330 890 c0 -5 5 -10 11 -10 5 0 7 5 4 10 -3 6 -8 10 -11 10 -2 0
-4 -4 -4 -10z"/>
<path d="M4723 873 c-68 -2 -123 -7 -123 -11 0 -4 58 -6 130 -4 73 2 130 7
130 13 0 5 -3 8 -7 7 -5 -1 -63 -4 -130 -5z"/>
<path d="M4450 862 c0 -12 60 -13 95 -3 26 8 21 9 -32 10 -35 1 -63 -3 -63 -7z"/>
</g>
</svg>
